<svg xmlns="http://www.w3.org/2000/svg" version="1.0" viewBox="0 0 774 519"><path fill="#BF0000" fill-opacity=".1" d="m290.4 60.2-2.9 3.3 3.3-2.9c3-2.8 3.7-3.6 2.9-3.6-.2 0-1.6 1.5-3.3 3.2M486 63.4c0 .2.8 1 1.8 1.7 1.5 1.3 1.6 1.2.3-.4s-2.1-2.1-2.1-1.3m11 11.1c1.9 1.9 3.6 3.5 3.9 3.5s-1-1.6-2.9-3.5-3.6-3.5-3.9-3.5 1 1.6 2.9 3.5m-225.1 4.2c-1.3 1.6-1.2 1.7.4.4.9-.7 1.7-1.5 1.7-1.7 0-.8-.8-.3-2.1 1.3M680 118.5c1.3 1.4 2.6 2.5 2.8 2.5.3 0-.5-1.1-1.8-2.5s-2.6-2.5-2.8-2.5c-.3 0 .5 1.1 1.8 2.5m-90.2 29.2c10.1.2 26.3.2 36 0 9.7-.1 1.5-.2-18.3-.2s-27.8.1-17.7.2m13.6 23.3c0 8 .2 11.2.3 7.2.2-3.9.2-10.5 0-14.5-.1-3.9-.3-.7-.3 7.3m25 0c0 8 .2 11.2.3 7.2.2-3.9.2-10.5 0-14.5-.1-3.9-.3-.7-.3 7.3m-172.9 13c2.1 2.2 4.1 4 4.4 4s-1.3-1.8-3.4-4-4.1-4-4.4-4 1.3 1.8 3.4 4m148.2 3.7c-1 .9-.9 28.1.1 28.6.4.3.7-6.2.7-14.4s0-14.9-.1-14.9c0 0-.4.3-.7.7m25 0c-1 .9-.9 28.1.1 28.6.4.3.7-6.2.7-14.4s0-14.9-.1-14.9c0 0-.4.3-.7.7M603.4 233c0 8 .2 11.2.3 7.2.2-3.9.2-10.5 0-14.5-.1-3.9-.3-.7-.3 7.3m25 0c0 8 .2 11.2.3 7.2.2-3.9.2-10.5 0-14.5-.1-3.9-.3-.7-.3 7.3m-339.2 13.5c0 1.6.2 2.2.5 1.2.2-.9.2-2.3 0-3-.3-.6-.5.1-.5 1.8m195 .5c0 1.4.2 1.9.5 1.2.2-.6.2-1.8 0-2.5-.3-.6-.5-.1-.5 1.3m184.6-.3c.7.3 1.6.2 1.9-.1.4-.3-.2-.6-1.3-.5-1.1 0-1.4.3-.6.6m-379.6 7.8c0 1.6.2 2.2.5 1.2.2-.9.2-2.3 0-3-.3-.6-.5.1-.5 1.8"/><path fill="#BF0000" fill-opacity=".3" d="M571.5 201c0 29.4.1 41.5.2 26.7.2-14.7.2-38.7 0-53.5-.1-14.7-.2-2.6-.2 26.8m124.8-43c0 4.1.2 5.8.4 3.7.2-2 .2-5.4 0-7.5-.2-2-.4-.3-.4 3.8M585 170.8l.5 14.7.3-13.9c.1-7.7-.1-14.3-.5-14.7-.4-.5-.6 5.8-.3 13.9m25 0 .5 14.7.3-13.9c.1-7.7-.1-14.3-.5-14.7-.4-.5-.6 5.8-.3 13.9m25 0 .5 14.7.3-13.9c.1-7.7-.1-14.3-.5-14.7-.4-.5-.6 5.8-.3 13.9m-557.7.2c0 4.7.2 6.6.4 4.2.2-2.3.2-6.1 0-8.5-.2-2.3-.4-.4-.4 4.3m508.1 31c0 8 .2 11.2.3 7.2.2-3.9.2-10.5 0-14.5-.1-3.9-.3-.7-.3 7.3m25 0c0 8 .2 11.2.3 7.2.2-3.9.2-10.5 0-14.5-.1-3.9-.3-.7-.3 7.3m25 0c0 8 .2 11.2.3 7.2.2-3.9.2-10.5 0-14.5-.1-3.9-.3-.7-.3 7.3m-497.1-7.3c1.5.2 3.9.2 5.5 0 1.5-.2.2-.4-2.8-.4s-4.3.2-2.7.4m13 0c1.5.2 3.7.2 5 0 1.2-.2 0-.4-2.8-.4-2.7 0-3.8.2-2.2.4m12 0c1.5.2 3.9.2 5.5 0 1.5-.2.2-.4-2.8-.4s-4.3.2-2.7.4m13 0c1.5.2 3.7.2 5 0 1.2-.2 0-.4-2.8-.4-2.7 0-3.8.2-2.2.4M585 233.2c-.3 8.1-.1 14.4.3 13.9.4-.4.6-7 .5-14.7l-.3-13.9zm25 0c-.3 8.1-.1 14.4.3 13.9.4-.4.6-7 .5-14.7l-.3-13.9zm25 0c-.3 8.1-.1 14.4.3 13.9.4-.4.6-7 .5-14.7l-.3-13.9zm61.3 4.3c0 4.4.2 6.1.4 3.7.2-2.3.2-5.9 0-8-.2-2-.4-.1-.4 4.3m-33.5 9.2c.7.3 1.6.2 1.9-.1.4-.3-.2-.6-1.3-.5-1.1 0-1.4.3-.6.6m-373.7 13.9c0 1.1.3 1.4.6.6.3-.7.2-1.6-.1-1.9-.3-.4-.6.2-.5 1.3"/><path fill="#BF0000" fill-opacity=".6" d="m290.9 60.7-2.4 2.8 2.8-2.4c2.5-2.3 3.2-3.1 2.4-3.1-.2 0-1.4 1.2-2.8 2.7M497 75.5c1.3 1.4 2.6 2.5 2.8 2.5.3 0-.5-1.1-1.8-2.5s-2.6-2.5-2.8-2.5c-.3 0 .5 1.1 1.8 2.5m181 41.9c0 .2.8 1 1.8 1.7 1.5 1.3 1.6 1.2.3-.4s-2.1-2.1-2.1-1.3M604.4 171c0 8 .2 11.2.3 7.2.2-3.9.2-10.5 0-14.5-.1-3.9-.3-.7-.3 7.3m25 0c0 8 .2 11.2.3 7.2.2-3.9.2-10.5 0-14.5-.1-3.9-.3-.7-.3 7.3m-172.9 13c2.1 2.2 4.1 4 4.4 4s-1.3-1.8-3.4-4-4.1-4-4.4-4 1.3 1.8 3.4 4m147.9 18c0 8 .2 11.2.3 7.2.2-3.9.2-10.5 0-14.5-.1-3.9-.3-.7-.3 7.3m25 0c0 8 .2 11.2.3 7.2.2-3.9.2-10.5 0-14.5-.1-3.9-.3-.7-.3 7.3m-456 1.5c0 4.9.1 7.1.3 4.8s.2-6.4 0-9-.3-.8-.3 4.2m431 29.5c0 8 .2 11.2.3 7.2.2-3.9.2-10.5 0-14.5-.1-3.9-.3-.7-.3 7.3m25 0c0 8 .2 11.2.3 7.2.2-3.9.2-10.5 0-14.5-.1-3.9-.3-.7-.3 7.3m-456 10c0 5.2.1 7.4.3 4.7.2-2.6.2-6.8 0-9.5-.2-2.6-.3-.4-.3 4.8m114.8 3.5c0 1.6.2 2.2.5 1.2.2-.9.2-2.3 0-3-.3-.6-.5.1-.5 1.8m197 .5c0 1.4.2 1.9.5 1.2.2-.6.2-1.8 0-2.5-.3-.6-.5-.1-.5 1.3m-197 7.5c0 1.6.2 2.2.5 1.2.2-.9.2-2.3 0-3-.3-.6-.5.1-.5 1.8m-114.8 8 .1 9 4.8.1 4.7.1-4.5-.4-4.4-.4-.4-8.7-.3-8.7zm-22.1 9.2c1.5.2 3.7.2 5 0 1.2-.2 0-.4-2.8-.4-2.7 0-3.8.2-2.2.4m12 0c1.5.2 3.9.2 5.5 0 1.5-.2.2-.4-2.8-.4s-4.3.2-2.7.4m9.8 3.9c0 1.1.3 1.4.6.6.3-.7.2-1.6-.1-1.9-.3-.4-.6.2-.5 1.3"/><path fill="#BF0000" fill-opacity=".8" d="M282.9 69.7c-1.3 1.6-1.2 1.7.4.4.9-.7 1.7-1.5 1.7-1.7 0-.8-.8-.3-2.1 1.3m-127.6 31c14.7.2 38.7.2 53.5 0 14.7-.1 2.6-.2-26.8-.2s-41.5.1-26.7.2m410 0c14.7.2 38.7.2 53.5 0 14.7-.1 2.6-.2-26.8-.2s-41.5.1-26.7.2m5.2 99.8c0 29.7.1 41.7.2 26.7.2-15 .2-39.3 0-54-.1-14.7-.2-2.4-.2 27.3m124.8-42c0 4.4.2 6.1.4 3.7.2-2.3.2-5.9 0-8-.2-2-.4-.1-.4 4.3M584.4 171c0 8 .2 11.2.3 7.2.2-3.9.2-10.5 0-14.5-.1-3.9-.3-.7-.3 7.3m25 0c0 8 .2 11.2.3 7.2.2-3.9.2-10.5 0-14.5-.1-3.9-.3-.7-.3 7.3m25 0c0 8 .2 11.2.3 7.2.2-3.9.2-10.5 0-14.5-.1-3.9-.3-.7-.3 7.3m-556 .5c0 4.9.1 7.1.3 4.8s.2-6.4 0-9-.3-.8-.3 4.2m65.4-5.8c8.9.2 23.5.2 32.5 0 8.9-.1 1.6-.3-16.3-.3s-25.2.2-16.2.3m49.7 59.3c0 32.7.1 46.1.2 29.7.2-16.3.2-43.1 0-59.5-.1-16.3-.2-2.9-.2 29.8m390.9-23c0 8 .2 11.2.3 7.2.2-3.9.2-10.5 0-14.5-.1-3.9-.3-.7-.3 7.3m25 0c0 8 .2 11.2.3 7.2.2-3.9.2-10.5 0-14.5-.1-3.9-.3-.7-.3 7.3m25 0c0 8 .2 11.2.3 7.2.2-3.9.2-10.5 0-14.5-.1-3.9-.3-.7-.3 7.3m-495.1 10.7c1.5.2 3.7.2 5 0 1.2-.2 0-.4-2.8-.4-2.7 0-3.8.2-2.2.4m12 0c1.5.2 3.7.2 5 0 1.2-.2 0-.4-2.8-.4-2.7 0-3.8.2-2.2.4m13 0c1.5.2 3.7.2 5 0 1.2-.2 0-.4-2.8-.4-2.7 0-3.8.2-2.2.4m12 0c1.5.2 3.7.2 5 0 1.2-.2 0-.4-2.8-.4-2.7 0-3.8.2-2.2.4M584.4 233c0 8 .2 11.2.3 7.2.2-3.9.2-10.5 0-14.5-.1-3.9-.3-.7-.3 7.3m25 0c0 8 .2 11.2.3 7.2.2-3.9.2-10.5 0-14.5-.1-3.9-.3-.7-.3 7.3m25 0c0 8 .2 11.2.3 7.2.2-3.9.2-10.5 0-14.5-.1-3.9-.3-.7-.3 7.3m60.9 4.5c0 4.4.2 6.1.4 3.7.2-2.3.2-5.9 0-8-.2-2-.4-.1-.4 4.3m-15.5 8.2c1.2.2 3 .2 4 0 .9-.3-.1-.5-2.3-.4-2.2 0-3 .2-1.7.4m-391.7 14.9c0 1.1.3 1.4.6.6.3-.7.2-1.6-.1-1.9-.3-.4-.6.2-.5 1.3m-126.7 13.1c.7.7 8.7.5 9.5-.3.2-.2-2-.4-4.9-.4s-5 .3-4.6.7m14.9 0c1.5.2 3.7.2 5 0 1.2-.2 0-.4-2.8-.4-2.7 0-3.8.2-2.2.4m105.5 34c1.2.2 3.2.2 4.5 0 1.2-.2.2-.4-2.3-.4s-3.5.2-2.2.4"/><path fill="#BF0000" fill-opacity=".9" d="m290.5 62.2-6 6.3 6.3-6c3.4-3.3 6.2-6.1 6.2-6.2 0-.8-1 .1-6.5 5.9m201 8.8c4.4 4.4 8.2 8 8.5 8 .2 0-3.1-3.6-7.5-8s-8.2-8-8.5-8c-.2 0 3.1 3.6 7.5 8m-215 5.2-5 5.3 5.3-5c2.8-2.7 5.2-5.1 5.2-5.2 0-.8-.9.1-5.5 4.9M452 78.4c0 .2.8 1 1.8 1.7 1.5 1.3 1.6 1.2.3-.4s-2.1-2.1-2.1-1.3m53 5c0 .2.8 1 1.8 1.7 1.5 1.3 1.6 1.2.3-.4s-2.1-2.1-2.1-1.3m-239.1 2.3c-1.3 1.6-1.2 1.7.4.4s2.1-2.1 1.3-2.1c-.2 0-1 .8-1.7 1.7m190.3.8c0 1.6.2 2.2.5 1.2.2-.9.2-2.3 0-3-.3-.6-.5.1-.5 1.8m-3.3 7.2c-1.3 1.6-1.2 1.7.4.4s2.1-2.1 1.3-2.1c-.2 0-1 .8-1.7 1.7m-217.1 7c.7.3 1.6.2 1.9-.1.4-.3-.2-.6-1.3-.5-1.1 0-1.4.3-.6.6m301 0c.7.3 1.6.2 1.9-.1.4-.3-.2-.6-1.3-.5-1.1 0-1.4.3-.6.6M678 118.2c2.4 2.7 4.5 4.8 4.7 4.8.8 0 0-.9-4.4-5l-4.8-4.5zm-583.1.5-3.4 3.8 3.8-3.4c3.4-3.3 4.2-4.1 3.4-4.1-.2 0-1.9 1.7-3.8 3.7M695.4 198c0 17.9.2 25.2.3 16.2.2-8.9.2-23.5 0-32.5-.1-8.9-.3-1.6-.3 16.3M447 174.4c0 .2.8 1 1.8 1.7 1.5 1.3 1.6 1.2.3-.4s-2.1-2.1-2.1-1.3M136.4 184c0 5.2.1 7.4.3 4.7.2-2.6.2-6.8 0-9.5-.2-2.6-.3-.4-.3 4.8m25 0c0 5.2.1 7.4.3 4.7.2-2.6.2-6.8 0-9.5-.2-2.6-.3-.4-.3 4.8m161.5-6.3c-1.3 1.6-1.2 1.7.4.4s2.1-2.1 1.3-2.1c-.2 0-1 .8-1.7 1.7M78.4 200.5c0 11.5.2 16.1.3 10.2.2-5.9.2-15.4 0-21-.1-5.6-.3-.8-.3 10.8M457.5 184c2.1 2.2 4.1 4 4.4 4s-1.3-1.8-3.4-4-4.1-4-4.4-4 1.3 1.8 3.4 4m123.3.7c.6.2 1.8.2 2.5 0 .6-.3.1-.5-1.3-.5s-1.9.2-1.2.5m25 0c.6.2 1.8.2 2.5 0 .6-.3.1-.5-1.3-.5s-1.9.2-1.2.5m25 0c.6.2 1.8.2 2.5 0 .6-.3.1-.5-1.3-.5s-1.9.2-1.2.5m-320.9 6c-1.3 1.6-1.2 1.7.4.4.9-.7 1.7-1.5 1.7-1.7 0-.8-.8-.3-2.1 1.3m-173.5 12.8c0 4.9.1 7.1.3 4.8s.2-6.4 0-9-.3-.8-.3 4.2m25 0c0 4.9.1 7.1.3 4.8s.2-6.4 0-9-.3-.8-.3 4.2m-25 20c0 4.9.1 7.1.3 4.8s.2-6.4 0-9-.3-.8-.3 4.2m25 0c0 4.9.1 7.1.3 4.8s.2-6.4 0-9-.3-.8-.3 4.2m419.4-3.8c.6.2 1.8.2 2.5 0 .6-.3.1-.5-1.3-.5s-1.9.2-1.2.5m25 0c.6.2 1.8.2 2.5 0 .6-.3.1-.5-1.3-.5s-1.9.2-1.2.5m25 0c.6.2 1.8.2 2.5 0 .6-.3.1-.5-1.3-.5s-1.9.2-1.2.5M78.4 241c0 10.7.2 15.1.3 9.7.2-5.3.2-14.1 0-19.5-.1-5.3-.3-.9-.3 9.8m58 2c0 5.2.1 7.4.3 4.7.2-2.6.2-6.8 0-9.5-.2-2.6-.3-.4-.3 4.8m25 0c0 5.2.1 7.4.3 4.7.2-2.6.2-6.8 0-9.5-.2-2.6-.3-.4-.3 4.8m513.4 2.7c.6.2 1.8.2 2.5 0 .6-.3.1-.5-1.3-.5s-1.9.2-1.2.5m-538.7 15.5c0 4.2.2 7.9.7 8.1.4.3.6-2 .4-5.1-.5-9.8-.9-11-1.1-3m25.3 1.3c0 4.9.1 7.1.3 4.8s.2-6.4 0-9-.3-.8-.3 4.2"/><g fill="#BF0000" stroke-width="0"><path d="M306.5 52.5c-.5.2-2.3.6-3.9 1-1.9.4-8.4 6-19 16.3-16.7 16.1-28 24.9-37 28.6-4.9 2-7 2.1-64.7 2.6l-59.6.5-8.5 4.2c-15 7.5-27.5 21-32.4 35.3-2.5 7.2-2.5 7.6-2.4 99.7v19.2l4.8.6c2.6.4 13.2 2 23.6 3.6 10.5 1.6 19.1 2.9 19.3 2.9s.3-23 .3-51v-51h67l.2 59.2.3 59.2 7.5 2.8c20.6 7.8 46.8 16.1 57.5 18.3 9.8 2 14.9 2.5 27.8 2.5 8.6 0 15.7-.2 15.7-.5s-1.2-2.9-2.6-5.7C292 284.2 288 268.2 288 251c0-26.9 10.2-49.7 31.1-69.5 12.3-11.7 23-17.8 40.6-23.2 8.2-2.5 10.1-2.7 27.8-2.7 16.9-.1 19.9.2 26.8 2.2 33.3 9.6 57.8 34.3 68.4 68.7 2.5 8.3 2.7 10.3 2.8 26.6v17.6l3-.9c11.8-3.4 49.9-10.7 75.5-14.5l5.5-.8.3-53.8.2-53.7h75v100.2l4.8-.6c2.6-.3 13.8-.8 25-1.2l20.3-.7-.3-50.6-.3-50.7-3.8-7.8c-6.8-13.7-21.3-26.9-35.2-32.2L649 101h-55.8c-47 0-56.7-.2-61.7-1.5-10.9-2.9-22.2-11.1-41.4-30.3-7.3-7.3-14.8-14-16.5-15-2.8-1.6-9.8-1.7-84.6-1.9-44.8-.1-81.9 0-82.5.2M451.4 78c3.2 1.2 6.1 6.9 5.2 10.3-.3 1.3-1.4 3.5-2.5 4.8l-1.9 2.4-62.9.3c-34.5.1-63.8 0-65.1-.3-4-1-6.2-4.1-6.2-8.8 0-4.5 1.2-6.7 4.5-8.5 2.6-1.5 125.2-1.6 128.9-.2"/><path d="M580 170.5c0 12.8.1 13.5 2 13.5s2-.7 2-13.5-.1-13.5-2-13.5-2 .7-2 13.5m25 0c0 12.8.1 13.5 2 13.5s2-.7 2-13.5-.1-13.5-2-13.5-2 .7-2 13.5m25 0c0 12.8.1 13.5 2 13.5s2-.7 2-13.5-.1-13.5-2-13.5-2 .7-2 13.5M137 184v9h9v-18h-9zm12 0v9h9v-18h-9zm13 0v9h9v-18h-9zm12 0v9h9v-18h-9zm406 18c0 13.3.1 14 2 14s2-.7 2-14-.1-14-2-14-2 .7-2 14m25 0c0 13.3.1 14 2 14s2-.7 2-14-.1-14-2-14-2 .7-2 14m25 0c0 13.3.1 14 2 14s2-.7 2-14-.1-14-2-14-2 .7-2 14m-493 1.5v8.5h9v-17h-9zm12 0v8.5h9v-17h-9zm13 0v8.5h9v-17h-9zm12 0v8.5h9v-17h-9zm-37 20v8.5h9v-17h-9zm12 0v8.5h9v-17h-9zm13 0v8.5h9v-17h-9zm12 0v8.5h9v-17h-9zm406 10c0 12.8.1 13.5 2 13.5s2-.7 2-13.5-.1-13.5-2-13.5-2 .7-2 13.5m25 0c0 12.8.1 13.5 2 13.5s2-.7 2-13.5-.1-13.5-2-13.5-2 .7-2 13.5m25 0c0 12.8.1 13.5 2 13.5s2-.7 2-13.5-.1-13.5-2-13.5-2 .7-2 13.5M137 243v9h9v-18h-9zm12 0v9h9v-18h-9zm13 0v9h9v-18h-9zm12 0v9h9v-18h-9zm-37 18.5c0 8-.1 7.9 5.8 8.9l3.2.5V254h-9zm12 1v8.5h9v-17h-9zm13 0v8.5h9v-17h-9zm12 0v8.5h9v-17h-9zm-8 12.5c3.6 1.1 5 1.1 5 0 0-.6-1.7-1-3.7-.9-3.4.1-3.5.2-1.3.9m8 .4c0 .8 2 2.1 4.5 2.9l4.5 1.6v-3c0-2.8-.2-2.9-4.5-2.9-3.2 0-4.5.4-4.5 1.4"/></g><path fill="#BF0000" fill-opacity=".4" d="m281.5 70.2-5 5.3 5.3-5c4.8-4.6 5.7-5.5 4.9-5.5-.1 0-2.5 2.4-5.2 5.2m173.6 16.4c0 1.1.3 1.4.6.6.3-.7.2-1.6-.1-1.9-.3-.4-.6.2-.5 1.3M95.9 116.7c-1.3 1.6-1.2 1.7.4.4.9-.7 1.7-1.5 1.7-1.7 0-.8-.8-.3-2.1 1.3m-5 5c-1.3 1.6-1.2 1.7.4.4s2.1-2.1 1.3-2.1c-.2 0-1 .8-1.7 1.7m489.9 35c.6.2 1.8.2 2.5 0 .6-.3.1-.5-1.3-.5s-1.9.2-1.2.5m25 0c.6.2 1.8.2 2.5 0 .6-.3.1-.5-1.3-.5s-1.9.2-1.2.5m25 0c.6.2 1.8.2 2.5 0 .6-.3.1-.5-1.3-.5s-1.9.2-1.2.5m65.6 40.8c0 18.1.2 25.7.3 16.8.2-8.9.2-23.7 0-33-.1-9.2-.3-2-.3 16.2m-503.9 27c0 32.4.1 45.6.2 29.2.2-16.4.2-43 0-59-.1-16.1-.2-2.7-.2 29.8M135.4 184c0 5.2.1 7.4.3 4.7.2-2.6.2-6.8 0-9.5-.2-2.6-.3-.4-.3 4.8m25 0c0 5.2.1 7.4.3 4.7.2-2.6.2-6.8 0-9.5-.2-2.6-.3-.4-.3 4.8m-83 16c0 11.8.2 16.7.3 10.7.2-5.9.2-15.5 0-21.5-.1-5.9-.3-1-.3 10.8m58 3.5c0 4.9.1 7.1.3 4.8s.2-6.4 0-9-.3-.8-.3 4.2m25 0c0 4.9.1 7.1.3 4.8s.2-6.4 0-9-.3-.8-.3 4.2m-25 20 .1 9 5 .1 5 .1-4.7-.4-4.7-.4-.4-8.7-.3-8.7zm25 0 .1 9 5 .1 5 .1-4.7-.4-4.7-.4-.4-8.7-.3-8.7zm-83.2 17.2c-.1 10.5.1 19.4.6 19.6.4.3.6-5.4.4-12.6-.4-24-.8-26.5-1-7m74.1-8c1.5.2 3.7.2 5 0 1.2-.2 0-.4-2.8-.4-2.7 0-3.8.2-2.2.4m25 0c1.5.2 3.7.2 5 0 1.2-.2 0-.4-2.8-.4-2.7 0-3.8.2-2.2.4M135.4 243c0 5.2.1 7.4.3 4.7.2-2.6.2-6.8 0-9.5-.2-2.6-.3-.4-.3 4.8m25 0c0 5.2.1 7.4.3 4.7.2-2.6.2-6.8 0-9.5-.2-2.6-.3-.4-.3 4.8m420.4 4.7c.6.2 1.8.2 2.5 0 .6-.3.1-.5-1.3-.5s-1.9.2-1.2.5m25 0c.6.2 1.8.2 2.5 0 .6-.3.1-.5-1.3-.5s-1.9.2-1.2.5m25 0c.6.2 1.8.2 2.5 0 .6-.3.1-.5-1.3-.5s-1.9.2-1.2.5m-495.4 6.6c-.3.8-.3 4.5-.1 8.3l.3 6.9.2-7.7.2-7.7 5.3-.4 5.2-.3-5.3-.2c-3.6-.1-5.4.2-5.8 1.1m15.9-.6c1.5.2 3.7.2 5 0 1.2-.2 0-.4-2.8-.4-2.7 0-3.8.2-2.2.4m9.1.6c-.3.8-.3 4.9-.1 9.3l.3 7.9.2-8.7.2-8.7 5.3-.4 5.2-.3-5.3-.2c-3.6-.1-5.4.2-5.8 1.1m15.9-.6c1.5.2 3.7.2 5 0 1.2-.2 0-.4-2.8-.4-2.7 0-3.8.2-2.2.4"/><path fill="#BF0000" fill-opacity=".2" d="M480 57.3c0 .2 1.5 1.6 3.3 3.3l3.2 2.9-2.9-3.3c-2.8-3-3.6-3.7-3.6-2.9m216.1 92.3c0 1.1.3 1.4.6.6.3-.7.2-1.6-.1-1.9-.3-.4-.6.2-.5 1.3m-618.8 6.9c0 3.8.2 5.3.4 3.2.2-2 .2-5.2 0-7-.2-1.7-.4-.1-.4 3.8M578.4 171c0 8 .2 11.2.3 7.2.2-3.9.2-10.5 0-14.5-.1-3.9-.3-.7-.3 7.3m-431 13c0 5.2.1 7.4.3 4.7.2-2.6.2-6.8 0-9.5-.2-2.6-.3-.4-.3 4.8m12 0c0 5.2.1 7.4.3 4.7.2-2.6.2-6.8 0-9.5-.2-2.6-.3-.4-.3 4.8m13 0c0 5.2.1 7.4.3 4.7.2-2.6.2-6.8 0-9.5-.2-2.6-.3-.4-.3 4.8m12 0c0 5.2.1 7.4.3 4.7.2-2.6.2-6.8 0-9.5-.2-2.6-.3-.4-.3 4.8m133 .2-2.9 3.3 3.3-2.9c3-2.8 3.7-3.6 2.9-3.6-.2 0-1.6 1.5-3.3 3.2m263.4 3.5c.6.2 1.8.2 2.5 0 .6-.3.1-.5-1.3-.5s-1.9.2-1.2.5m25 0c.6.2 1.8.2 2.5 0 .6-.3.1-.5-1.3-.5s-1.9.2-1.2.5m25 0c.6.2 1.8.2 2.5 0 .6-.3.1-.5-1.3-.5s-1.9.2-1.2.5M578.4 202c0 8 .2 11.2.3 7.2.2-3.9.2-10.5 0-14.5-.1-3.9-.3-.7-.3 7.3m-439.1-8.3c1.5.2 3.7.2 5 0 1.2-.2 0-.4-2.8-.4-2.7 0-3.8.2-2.2.4m8.9.5c-.8.8-1.1 4.2-1 9.7l.2 8.6.5-9 .6-9h10l.6 9.5.5 9.5.2-9.1c.2-10.4-.3-11.4-6.3-11.4-2.3 0-4.6.5-5.3 1.2m16.1-.5c1.5.2 3.7.2 5 0 1.2-.2 0-.4-2.8-.4-2.7 0-3.8.2-2.2.4m8.9.5c-.8.8-1.1 4.2-1 9.7l.2 8.6.5-9 .6-9h10l.6 9.5.5 9.5.2-9.1c.2-10.4-.3-11.4-6.3-11.4-2.3 0-4.6.5-5.3 1.2m11.2 28.8c0 5.2.1 7.4.3 4.7.2-2.6.2-6.8 0-9.5-.2-2.6-.3-.4-.3 4.8m-37.4.7c-.3 5.1-.1 8.9.3 8.4.4-.4.7-4.6.5-9.2l-.3-8.4zm12.2-.5c-.1 4.8.1 8.9.6 9.1.4.3.6-2.3.4-5.6-.5-11.1-.9-12.4-1-3.5m12.8.5c-.3 5.1-.1 8.9.3 8.4.4-.4.7-4.6.5-9.2l-.3-8.4zm408.8-7c.6.2 1.8.2 2.5 0 .6-.3.1-.5-1.3-.5s-1.9.2-1.2.5m25 0c.6.2 1.8.2 2.5 0 .6-.3.1-.5-1.3-.5s-1.9.2-1.2.5m25 0c.6.2 1.8.2 2.5 0 .6-.3.1-.5-1.3-.5s-1.9.2-1.2.5M578.4 233c0 8 .2 11.2.3 7.2.2-3.9.2-10.5 0-14.5-.1-3.9-.3-.7-.3 7.3m-431 10c0 5.2.1 7.4.3 4.7.2-2.6.2-6.8 0-9.5-.2-2.6-.3-.4-.3 4.8m12 0c0 5.2.1 7.4.3 4.7.2-2.6.2-6.8 0-9.5-.2-2.6-.3-.4-.3 4.8m13 0c0 5.2.1 7.4.3 4.7.2-2.6.2-6.8 0-9.5-.2-2.6-.3-.4-.3 4.8m12 0c0 5.2.1 7.4.3 4.7.2-2.6.2-6.8 0-9.5-.2-2.6-.3-.4-.3 4.8m481.4 3.7c.7.3 1.6.2 1.9-.1.4-.3-.2-.6-1.3-.5-1.1 0-1.4.3-.6.6M147 262.3l.5 9.2.3-8.4c.2-4.6-.1-8.8-.5-9.2-.4-.5-.6 3.3-.3 8.4m12.7-8.6c-1 .9-.9 17.1.1 17.6.4.3.7-3.7.7-8.9s0-9.4-.1-9.4c0 0-.4.3-.7.7m12.3 8.6.5 9.2.3-8.4c.2-4.6-.1-8.8-.5-9.2-.4-.5-.6 3.3-.3 8.4m12.4.2c0 4.9.1 7.1.3 4.8s.2-6.4 0-9-.3-.8-.3 4.2m299.7-1.9c0 1.1.3 1.4.6.6.3-.7.2-1.6-.1-1.9-.3-.4-.6.2-.5 1.3M184.3 277c0 2.5.2 3.5.4 2.2.2-1.2.2-3.2 0-4.5-.2-1.2-.4-.2-.4 2.3m-12.2-1.4c0 1.1.3 1.4.6.6.3-.7.2-1.6-.1-1.9-.3-.4-.6.2-.5 1.3"/><path fill="#BF0000" fill-opacity=".5" d="M490.5 69c2.1 2.2 4.1 4 4.4 4s-1.3-1.8-3.4-4-4.1-4-4.4-4 1.3 1.8 3.4 4m-215.6 7.7c-1.3 1.6-1.2 1.7.4.4s2.1-2.1 1.3-2.1c-.2 0-1 .8-1.7 1.7m81.9 1c16.6.2 43.8.2 60.5 0 16.6-.1 3-.2-30.3-.2s-46.9.1-30.2.2m-38.7 8.9c0 1.1.3 1.4.6.6.3-.7.2-1.6-.1-1.9-.3-.4-.6.2-.5 1.3m39.2 9.1c17 .2 44.4.2 61 0 16.6-.1 2.8-.2-30.8-.2-33.5 0-47.1.1-30.2.2m287.2 101.8c0 27.5.1 38.6.2 24.7.2-13.9.2-36.4 0-50-.1-13.6-.2-2.2-.2 25.3m-517 19.5c0 28.3.1 39.9.2 25.8.2-14.2.2-37.4 0-51.5-.1-14.2-.2-2.6-.2 25.7m18.9-33c0 5.2.1 7.4.3 4.7.2-2.6.2-6.8 0-9.5-.2-2.6-.3-.4-.3 4.8m25 0c0 5.2.1 7.4.3 4.7.2-2.6.2-6.8 0-9.5-.2-2.6-.3-.4-.3 4.8m-25 19.5c0 4.9.1 7.1.3 4.8s.2-6.4 0-9-.3-.8-.3 4.2m25 0c0 4.9.1 7.1.3 4.8s.2-6.4 0-9-.3-.8-.3 4.2m-25 20c0 4.9.1 7.1.3 4.8s.2-6.4 0-9-.3-.8-.3 4.2m25 0c0 4.9.1 7.1.3 4.8s.2-6.4 0-9-.3-.8-.3 4.2m-25 19.5c0 5.2.1 7.4.3 4.7.2-2.6.2-6.8 0-9.5-.2-2.6-.3-.4-.3 4.8m25 0c0 5.2.1 7.4.3 4.7.2-2.6.2-6.8 0-9.5-.2-2.6-.3-.4-.3 4.8m116.7 7.6c0 1.1.3 1.4.6.6.3-.7.2-1.6-.1-1.9-.3-.4-.6.2-.5 1.3m197.2 2.4c0 2.5.2 3.5.4 2.2.2-1.2.2-3.2 0-4.5-.2-1.2-.4-.2-.4 2.3m-338.9 9.5c0 4.9.1 7.1.3 4.8s.2-6.4 0-9-.3-.8-.3 4.2m25 0c0 4.9.1 7.1.3 4.8s.2-6.4 0-9-.3-.8-.3 4.2m123.4 45.2c.7.3 1.6.2 1.9-.1.4-.3-.2-.6-1.3-.5-1.1 0-1.4.3-.6.6"/><path fill="#BF0000" fill-opacity=".7" d="M482 60.5c1.3 1.4 2.6 2.5 2.8 2.5.3 0-.5-1.1-1.8-2.5s-2.6-2.5-2.8-2.5c-.3 0 .5 1.1 1.8 2.5m18 17.9c0 .2.8 1 1.8 1.7 1.5 1.3 1.6 1.2.3-.4s-2.1-2.1-2.1-1.3m195.1 71.2c0 1.1.3 1.4.6.6.3-.7.2-1.6-.1-1.9-.3-.4-.6.2-.5 1.3m-616.8 6.9c0 3.8.2 5.3.4 3.2.2-2 .2-5.2 0-7-.2-1.7-.4-.1-.4 3.8m501.1 14c0 7.7.2 10.7.3 6.7.2-4 .2-10.3 0-14s-.3-.4-.3 7.3m-431 13.5c0 5.2.1 7.4.3 4.7.2-2.6.2-6.8 0-9.5-.2-2.6-.3-.4-.3 4.8m10 0c0 5.2.1 7.4.3 4.7.2-2.6.2-6.8 0-9.5-.2-2.6-.3-.4-.3 4.8m15 0c0 5.2.1 7.4.3 4.7.2-2.6.2-6.8 0-9.5-.2-2.6-.3-.4-.3 4.8m10 0c0 5.2.1 7.4.3 4.7.2-2.6.2-6.8 0-9.5-.2-2.6-.3-.4-.3 4.8m133 .2-2.9 3.3 3.3-2.9c3-2.8 3.7-3.6 2.9-3.6-.2 0-1.6 1.5-3.3 3.2m263 17.8c0 8 .2 11.2.3 7.2.2-3.9.2-10.5 0-14.5-.1-3.9-.3-.7-.3 7.3m-431 1.5c0 4.9.1 7.1.3 4.8s.2-6.4 0-9-.3-.8-.3 4.2m10 0c0 4.9.1 7.1.3 4.8s.2-6.4 0-9-.3-.8-.3 4.2m25 0c0 4.9.1 7.1.3 4.8s.2-6.4 0-9-.3-.8-.3 4.2m-45.1 11.2c1.5.2 3.9.2 5.5 0 1.5-.2.2-.4-2.8-.4s-4.3.2-2.7.4m10.1.6c-.2.7-.3 4.9-.1 9.3l.3 7.9.2-8.8.2-8.7h8.9l.4 8.2.3 8.3V223l-.1-8.5-4.8-.3c-3.3-.2-4.9.1-5.3 1.1m15.9-.6c1.5.2 3.7.2 5 0 1.2-.2 0-.4-2.8-.4-2.7 0-3.8.2-2.2.4m9.1.6c-.2.7-.3 4.9-.1 9.3l.3 7.9.2-8.8.2-8.7h8.9l.4 8.2.3 8.3V223l-.1-8.5-4.8-.3c-3.3-.2-4.9.1-5.3 1.1m406 18.2c0 7.7.2 10.7.3 6.7.2-4 .2-10.3 0-14s-.3-.4-.3 7.3m-431 9.5c0 5.2.1 7.4.3 4.7.2-2.6.2-6.8 0-9.5-.2-2.6-.3-.4-.3 4.8m10 0c0 5.2.1 7.4.3 4.7.2-2.6.2-6.8 0-9.5-.2-2.6-.3-.4-.3 4.8m25 0c0 5.2.1 7.4.3 4.7.2-2.6.2-6.8 0-9.5-.2-2.6-.3-.4-.3 4.8m503.9 2.7c1.5.2 3.9.2 5.5 0 1.5-.2.2-.4-2.8-.4s-4.3.2-2.7.4m-538.9 16.8c0 4.9.1 7.1.3 4.8s.2-6.4 0-9-.3-.8-.3 4.2m10 0c0 4.9.1 7.1.3 4.8s.2-6.4 0-9-.3-.8-.3 4.2m25 0c0 4.9.1 7.1.3 4.8s.2-6.4 0-9-.3-.8-.3 4.2m301.7-1.9c0 1.1.3 1.4.6.6.3-.7.2-1.6-.1-1.9-.3-.4-.6.2-.5 1.3M183.2 277c0 1.9.2 2.7.5 1.7.2-.9.2-2.5 0-3.5-.3-.9-.5-.1-.5 1.8m94.6 30.7c.7.3 1.6.2 1.9-.1.4-.3-.2-.6-1.3-.5-1.1 0-1.4.3-.6.6m11 0c.6.2 1.8.2 2.5 0 .6-.3.1-.5-1.3-.5s-1.9.2-1.2.5"/><path fill="#FFBF00" fill-opacity=".1" d="M456.3 253c0 2.5.2 3.5.4 2.2.2-1.2.2-3.2 0-4.5-.2-1.2-.4-.2-.4 2.3M336 300.5c1.3 1.4 2.6 2.5 2.8 2.5.3 0-.5-1.1-1.8-2.5s-2.6-2.5-2.8-2.5c-.3 0 .5 1.1 1.8 2.5"/><path fill="#FFBF00" fill-opacity=".3" d="M386.3 184.7c.9.2 2.3.2 3 0 .6-.3-.1-.5-1.8-.5-1.6 0-2.2.2-1.2.5m-50.4 22c-1.3 1.6-1.2 1.7.4.4s2.1-2.1 1.3-2.1c-.2 0-1 .8-1.7 1.7"/><path fill="#BFBF00" fill-opacity=".5" d="M455.1 247.6c0 1.1.3 1.4.6.6.3-.7.2-1.6-.1-1.9-.3-.4-.6.2-.5 1.3"/><path fill="#BFBF00" fill-opacity=".8" d="M339.9 203.7c-1.3 1.6-1.2 1.7.4.4s2.1-2.1 1.3-2.1c-.2 0-1 .8-1.7 1.7"/><path fill="#BFBF00" fill-opacity=".9" d="M434.5 205c1 1.1 2 2 2.3 2s-.3-.9-1.3-2-2-2-2.3-2 .3.9 1.3 2m-115.4 54.6c0 1.1.3 1.4.6.6.3-.7.2-1.6-.1-1.9-.3-.4-.6.2-.5 1.3"/><path fill="#FFBF00" d="M376.4 186.1c-35.2 5.9-60.8 39.6-56.5 74.6 1.8 15.2 7.9 28.7 16.6 37.3l4.1 4 12-1.5c17.7-2.3 31.1-5 47.9-9.6 8.3-2.3 22.7-6 32-8.3 19.4-4.9 18.3-4 20.9-16.8 3.1-14.8 1.2-27.6-6.1-42.7-3.7-7.8-5.9-10.9-12.7-17.7s-9.9-9-17.7-12.7c-14.1-6.8-26.8-8.9-40.5-6.6"/><path fill="#FFBF00" fill-opacity=".4" d="M434.5 204c1 1.1 2 2 2.3 2s-.3-.9-1.3-2-2-2-2.3-2 .3.9 1.3 2"/><path fill="#BFBF00" fill-opacity=".6" d="M455.3 254.5c0 2.2.2 3 .4 1.7.2-1.2.2-3 0-4-.3-.9-.5.1-.4 2.3M336.5 300c1 1.1 2 2 2.3 2s-.3-.9-1.3-2-2-2-2.3-2 .3.9 1.3 2"/><path fill="#4080BF" fill-opacity=".1" d="M654.8 282.7c.7.3 1.6.2 1.9-.1.4-.3-.2-.6-1.3-.5-1.1 0-1.4.3-.6.6m-502 42c.7.3 1.6.2 1.9-.1.4-.3-.2-.6-1.3-.5-1.1 0-1.4.3-.6.6"/><path fill="#4080BF" fill-opacity=".2" d="M171.8 324.7c.7.3 1.6.2 1.9-.1.4-.3-.2-.6-1.3-.5-1.1 0-1.4.3-.6.6m79 33c1.2.2 3.2.2 4.5 0 1.2-.2.2-.4-2.3-.4s-3.5.2-2.2.4"/><path fill="#4080BF" fill-opacity=".3" d="M659.8 282.7c.7.3 1.6.2 1.9-.1.4-.3-.2-.6-1.3-.5-1.1 0-1.4.3-.6.6m-502 42c.7.3 1.6.2 1.9-.1.4-.3-.2-.6-1.3-.5-1.1 0-1.4.3-.6.6m11 0c.7.3 1.6.2 1.9-.1.4-.3-.2-.6-1.3-.5-1.1 0-1.4.3-.6.6m78 33c.7.3 1.6.2 1.9-.1.4-.3-.2-.6-1.3-.5-1.1 0-1.4.3-.6.6m12 0c.6.2 1.8.2 2.5 0 .6-.3.1-.5-1.3-.5s-1.9.2-1.2.5"/><path fill="#4080BF" fill-opacity=".4" d="M696.4 309.5c0 14.8.2 21.1.3 13.8.2-7.2.2-19.4 0-27-.1-7.6-.3-1.7-.3 13.2m-619-.5c0 9.1.2 12.8.3 8.2.2-4.5.2-11.9 0-16.5-.1-4.5-.3-.8-.3 8.3m84.4 15.7c1.2.2 3.2.2 4.5 0 1.2-.2.2-.4-2.3-.4s-3.5.2-2.2.4m-84.4 26.8c0 7.1.1 9.9.3 6.2s.2-9.6 0-13-.3-.4-.3 6.8m166.4 6.2c.7.3 1.6.2 1.9-.1.4-.3-.2-.6-1.3-.5-1.1 0-1.4.3-.6.6m19.5 0c.9.2 2.3.2 3 0 .6-.3-.1-.5-1.8-.5-1.6 0-2.2.2-1.2.5"/><path fill="#4080BF" fill-opacity=".5" d="M664.8 282.7c.7.3 1.6.2 1.9-.1.4-.3-.2-.6-1.3-.5-1.1 0-1.4.3-.6.6M320 329.1c0 .5.5.7 1 .4.6-.3 1-.8 1-1.1 0-.2-.4-.4-1-.4-.5 0-1 .5-1 1.1m-52.2 28.6c.7.3 1.6.2 1.9-.1.4-.3-.2-.6-1.3-.5-1.1 0-1.4.3-.6.6"/><path fill="#4080BF" fill-opacity=".6" d="M519.8 301.7c.6.2 1.8.2 2.5 0 .6-.3.1-.5-1.3-.5s-1.9.2-1.2.5m8 0c.6.2 1.8.2 2.5 0 .6-.3.1-.5-1.3-.5s-1.9.2-1.2.5m89 35c.7.3 1.6.2 1.9-.1.4-.3-.2-.6-1.3-.5-1.1 0-1.4.3-.6.6m-346 21c.7.3 1.6.2 1.9-.1.4-.3-.2-.6-1.3-.5-1.1 0-1.4.3-.6.6"/><path fill="#4080BF" fill-opacity=".7" d="M669.8 282.7c.7.3 1.6.2 1.9-.1.4-.3-.2-.6-1.3-.5-1.1 0-1.4.3-.6.6m-146 19c.6.2 1.8.2 2.5 0 .6-.3.1-.5-1.3-.5s-1.9.2-1.2.5m88.5 35c.9.2 2.3.2 3 0 .6-.3-.1-.5-1.8-.5-1.6 0-2.2.2-1.2.5m-338.5 21c.7.3 1.6.2 1.9-.1.4-.3-.2-.6-1.3-.5-1.1 0-1.4.3-.6.6"/><path fill="#4080BF" fill-opacity=".8" d="M673.8 282.7c1.2.2 3 .2 4 0 .9-.3-.1-.5-2.3-.4-2.2 0-3 .2-1.7.4m10 0c2.3.2 5.9.2 8 0 2-.2.1-.4-4.3-.4s-6.1.2-3.7.4M158.5 311l-4 .7 4.3.2c2.3 0 4.2-.4 4.2-.9 0-.6-.1-.9-.2-.9-.2.1-2.1.5-4.3.9m168.3 17.7c.7.3 1.6.2 1.9-.1.4-.3-.2-.6-1.3-.5-1.1 0-1.4.3-.6.6"/><path fill="#4080BF" fill-opacity=".9" d="M695.4 309c0 14.6.2 20.5.3 13.2.2-7.2.2-19.2 0-26.5-.1-7.2-.3-1.3-.3 13.3m-617.2-.3c.2 16.1.6 14.3 1-5 .2-5.9 0-10.7-.4-10.7-.5 0-.7 7.1-.6 15.7m73.6 3c.6.2 1.8.2 2.5 0 .6-.3.1-.5-1.3-.5s-1.9.2-1.2.5m-73.4 39.8c0 7.1.1 9.9.3 6.2s.2-9.6 0-13-.3-.4-.3 6.8M279 357c-1.3.8-1.2 1 .3 1 .9 0 1.7-.5 1.7-1 0-1.2-.1-1.2-2 0"/><path fill="#4080BF" d="M644.5 284.1c-18 1.7-49.4 7.8-40.6 7.9 7 .1 39 12.5 57 22.2 5.1 2.7 14.6 8.2 21 12 6.4 3.9 11.9 7.2 12.4 7.5.4.2.7-11.1.7-25.1V283l-20.7.1c-11.5.1-24.8.5-29.8 1M79 309.1c0 12.6.2 15 1.4 14.6.8-.3 7.8-2.2 15.6-4.1 16.2-4.1 37-7.2 54.5-8.2l12-.6-6-1.9c-8.4-2.7-24.1-6.6-34.9-8.9-9.4-1.9-37-6-40.6-6-1.9 0-2 .6-2 15.1m428-6.4c-20.2 2.1-44 6-87.5 14.4-41 7.9-49.7 9-87.9 11.5l-9.9.6 3.9 1.8c2.2.9 17.9 8.3 35.1 16.4l31.2 14.6h85l14.8-5.2c8.1-2.8 26.1-9.6 39.8-15.1 32.7-13 39.3-15.2 56.2-19.1l14.3-3.2-24.4-7.3c-13.4-3.9-28.3-7.9-33.2-8.6-8-1.4-28.3-1.8-37.4-.8m-361 22.9c-16.3 1.5-46.1 7.3-62.1 12l-4.9 1.5V362h57.8c52.8 0 58.9-.2 72.2-2.1 10.5-1.5 22.3-2.2 42.8-2.6l28.3-.6-7-3.9c-23.4-12.9-52.5-22.6-77.1-25.8-9-1.2-42.4-2.1-50-1.4m452.1 13c-14.3 3.1-38.3 12.2-54.6 20.7l-5 2.6 68 .1c56.9 0 67.6-.2 66-1.3-6.5-4.4-25.5-15.3-31-17.8-3.6-1.6-9.3-3.6-12.8-4.4-7.6-1.8-22.1-1.8-30.6.1"/><path fill="#8080BF" fill-opacity=".1" d="M426.8 373.7c.6.2 1.8.2 2.5 0 .6-.3.1-.5-1.3-.5s-1.9.2-1.2.5m-169 5c.7.3 1.6.2 1.9-.1.4-.3-.2-.6-1.3-.5-1.1 0-1.4.3-.6.6m29 0c.7.3 1.6.2 1.9-.1.4-.3-.2-.6-1.3-.5-1.1 0-1.4.3-.6.6m-122 18c.7.3 1.6.2 1.9-.1.4-.3-.2-.6-1.3-.5-1.1 0-1.4.3-.6.6"/><path fill="#8080BF" fill-opacity=".3" d="M262.8 378.7c.7.3 1.6.2 1.9-.1.4-.3-.2-.6-1.3-.5-1.1 0-1.4.3-.6.6m18 0c.6.2 1.8.2 2.5 0 .6-.3.1-.5-1.3-.5s-1.9.2-1.2.5"/><path fill="#8080BF" fill-opacity=".4" d="M77.4 380c0 9.1.2 12.8.3 8.2.2-4.5.2-11.9 0-16.5-.1-4.5-.3-.8-.3 8.3m619 18.5c0 14.8.2 21.1.3 13.8.2-7.2.2-19.4 0-27-.1-7.6-.3-1.7-.3 13.2m-427.6-19.8c2.3.2 5.9.2 8 0 2-.2.1-.4-4.3-.4s-6.1.2-3.7.4"/><path fill="#8080BF" fill-opacity=".9" d="M78.4 380c0 9.1.2 12.8.3 8.2.2-4.5.2-11.9 0-16.5-.1-4.5-.3-.8-.3 8.3M695 398.3l.5 27.2.3-26.4c.1-14.6-.1-26.8-.5-27.2-.5-.5-.6 11.4-.3 26.4"/><path fill="#8080BF" d="M79 379v16.9l8.3-3c37.4-13.9 63.7-21.8 94.8-28.4l11.4-2.4h-57.2L79 362zm317-15.4c7.6 3.3 22.8 8.2 27.5 8.8 6.8 1 22.1-1.5 37.5-5.9 6.8-2 12.6-3.8 12.9-4 .2-.3-18-.5-40.5-.5-37.5.1-40.6.2-37.4 1.6m134.5 1.6c-12.9 6.7-46 18.6-60.8 21.8-3.2.8-5.4 1.7-5 2.1 1.6 1.4 40.2 14.8 55.8 19.2 21.6 6.2 34 9.2 53.5 13.3l16.5 3.4H695v-53l-10-5-10-5h-69.2l-69.3.1zM245 380.1c-5.2.4-13.1 1.3-17.5 1.9-8.5 1.2-33.9 7-33.2 7.6.2.2 7.1 2.7 15.3 5.4 16.9 5.8 36.2 14 55.5 23.5l13.1 6.5 70.2-.2 70.1-.3-23-10.9c-44.6-21.2-57.6-26.2-78.5-30.6-18.6-3.8-47.7-5-72-2.9m-86 17.6c-8 .8-24.4 4.8-39 9.5-21.2 6.8-41 14.7-41 16.4 0 1.2 13.1 1.4 80.3 1.4h80.2l-4.5-2.7c-9.8-5.7-31.1-15.3-42.5-19.1-10.3-3.5-25-6.6-28.8-6-.7 0-2.8.3-4.7.5"/><path fill="#80BFBF" fill-opacity=".1" d="M96.5 452c1 1.1 2 2 2.3 2s-.3-.9-1.3-2-2-2-2.3-2 .3.9 1.3 2"/><path fill="#80BFBF" fill-opacity=".3" d="M416.8 466.7c.7.3 1.6.2 1.9-.1.4-.3-.2-.6-1.3-.5-1.1 0-1.4.3-.6.6"/><path fill="#80BFBF" fill-opacity=".4" d="M696.3 431.5c0 3.8.2 5.3.4 3.2.2-2 .2-5.2 0-7-.2-1.7-.4-.1-.4 3.8m-276 35.2c.9.2 2.3.2 3 0 .6-.3-.1-.5-1.8-.5-1.6 0-2.2.2-1.2.5"/><path fill="#80BFBF" fill-opacity=".6" d="M97.5 452c1 1.1 2 2 2.3 2s-.3-.9-1.3-2-2-2-2.3-2 .3.9 1.3 2m355.2 14.7c14.5.2 38.1.2 52.5 0 14.5-.1 2.7-.2-26.2-.2s-40.7.1-26.3.2"/><path fill="#80BFBF" d="M80 425.7c0 2.4 14.1 21.1 20.8 27.4 9.2 8.9 15 11.4 29.9 12.9 4.8.5 47.9 1 95.8 1h86.9l-12.4-6.3c-6.9-3.5-19.5-10.7-28.1-16s-19.5-11.9-24.3-14.7l-8.8-5h-79.9c-43.9 0-79.9.3-79.9.7m216.9 8.9c28.7 14.9 45.7 21.2 69.1 25.3 30.1 5.4 30.6 5.4 100 5.7l65.5.3-15.5-4c-25.5-6.6-58.9-18.9-86.4-31.8l-10.9-5.1H278.5zm305.6-8c19.9 3.4 79.9 10.4 89 10.4h3.5v-12l-50.2.1c-46 .1-49.6.3-42.3 1.5"/><path fill="#80BFBF" fill-opacity=".9" d="M694.8 431.5c-.1 3.6 0 6.5.5 6.5.4 0 .7-2.9.7-6.5s-.2-6.5-.4-6.5-.6 2.9-.8 6.5M99.5 453c3.3 3.3 6.2 6 6.4 6 .3 0-2.1-2.7-5.4-6s-6.2-6-6.4-6c-.3 0 2.1 2.7 5.4 6m33.3 13.7c.6.2 1.8.2 2.5 0 .6-.3.1-.5-1.3-.5s-1.9.2-1.2.5"/><path fill="#80BFBF" fill-opacity=".5" d="M532 466c-1.2.8-1 1 .8 1 1.3 0 2-.4 1.7-1-.7-1.2-.6-1.2-2.5 0m-107.2.7c.7.3 1.6.2 1.9-.1.4-.3-.2-.6-1.3-.5-1.1 0-1.4.3-.6.6"/></svg>